#!OML:ASF H:\Dans Jumps\Project 1\Capture day 1\Session 1\subject.ASF
:FULLY-SPECIFIED
:DEGREES
92
root 0.56085 17.5519 -13.8918 7.50084 -0.500182 -1.46645
lowerback -2.2438 -0.559221 0.223138
upperback 3.19387 -0.836033 1.92067
thorax 4.57928 -0.444358 1.8075
lowerneck -14.5755 0.400679 -2.16351
upperneck 29.3792 0.995891 0.57549
head 12.0558 0.274503 0.733028
rclavicle 2.18663e-015 5.96354e-015
rhumerus -24.3576 -17.416 -77.7432
rradius 24.5343
rwrist 32.7719
rhand -18.2447 -26.2695
rfingers 7.12502
rthumb 8.0342 -56.0968
lclavicle 2.18663e-015 5.96354e-015
lhumerus -22.3465 1.93333 85.4913
lradius 19.5812
lwrist 3.96997
lhand -23.5669 -2.65778
lfingers 7.12502
lthumb 2.89562 27.3023
rfemur -14.575 -3.00254 20.846
rtibia 21.7376
rfoot -14.0839 -2.28631
rtoes 10.0084
lfemur -14.2747 8.89963 -19.563
ltibia 19.6245
lfoot -11.4929 3.82623
ltoes -1.66414
93
root 0.56022 17.5517 -13.8914 7.49917 -0.492195 -1.46745
lowerback -2.24395 -0.560144 0.22706
upperback 3.19976 -0.837538 1.92034
thorax 4.58549 -0.445005 1.80486
lowerneck -14.5759 0.396957 -2.15985
upperneck 29.3762 0.99094 0.57084
head 12.0548 0.27214 0.729918
rclavicle 2.18663e-015 8.74653e-015
rhumerus -24.3548 -17.4156 -77.7395
rradius 24.5393
rwrist 32.7667
rhand -18.2437 -26.2525
rfingers 7.12502
rthumb 8.03512 -56.0797
lclavicle 2.18663e-015 8.74653e-015
lhumerus -22.3408 1.96342 85.4878
lradius 19.5851
lwrist 3.97147
lhand -23.5342 -2.5573
lfingers 7.12502
lthumb 2.92724 27.4024
rfemur -14.5726 -3.00063 20.8495
rtibia 21.743
rfoot -14.0885 -2.29547
rtoes 10.0011
lfemur -14.2767 8.88896 -19.5584
ltibia 19.6346
lfoot -11.5006 3.82956
ltoes -1.65551
94
root 0.559685 17.5514 -13.8909 7.49539 -0.483859 -1.46727
lowerback -2.24202 -0.560882 0.2314
upperback 3.20671 -0.838757 1.91885
thorax 4.59159 -0.445477 1.80083
lowerneck -14.578 0.393329 -2.15113
upperneck 29.3717 0.985982 0.562181
head 12.0536 0.269834 0.724429
rclavicle -1.98785e-016 5.1684e-015
rhumerus -24.3518 -17.4217 -77.7353
rradius 24.5419
rwrist 32.771
rhand -18.2481 -26.2327
rfingers 7.12502
rthumb 8.03086 -56.0602
lclavicle -1.98785e-016 5.1684e-015
lhumerus -22.3331 1.99783 85.4825
lradius 19.5864
lwrist 3.96586
lhand -23.5373 -2.53517
lfingers 7.12502
lthumb 2.92425 27.4245
rfemur -14.5686 -3.00039 20.851
rtibia 21.7502
rfoot -14.0939 -2.30342
rtoes 10.0003
lfemur -14.2758 8.87415 -19.5552
ltibia 19.6441
lfoot -11.5069 3.83725
ltoes -1.65206
95
root 0.559239 17.5511 -13.8904 7.48987 -0.47695 -1.46382
lowerback -2.23754 -0.560458 0.233745
upperback 3.21429 -0.838245 1.91576
thorax 4.59683 -0.445126 1.79637
lowerneck -14.5817 0.387923 -2.15101
upperneck 29.3669 0.978424 0.561677
head 12.0526 0.26647 0.723119
rclavicle 7.95139e-015 -2.90226e-014
rhumerus -24.3486 -17.4367 -77.7295
rradius 24.5426
rwrist 32.7858
rhand -18.2546 -26.2203
rfingers 7.12502
rthumb 8.02465 -56.048
lclavicle 7.95139e-015 -2.90226e-014
lhumerus -22.3231 2.03517 85.476
lradius 19.5832
lwrist 3.95045
lhand -23.5766 -2.60242
lfingers 7.12502
lthumb 2.8863 27.3578
rfemur -14.5646 -3.0019 20.8483
rtibia 21.7604
rfoot -14.1003 -2.30785
rtoes 10.0011
lfemur -14.2721 8.85711 -19.5557
ltibia 19.6526
lfoot -11.5119 3.84812
ltoes -1.6422
96
root 0.558823 17.5508 -13.89 7.48576 -0.46843 -1.45851
lowerback -2.23197 -0.560258 0.234831
upperback 3.22213 -0.837935 1.91197
thorax 4.60174 -0.444906 1.79191
lowerneck -14.6071 0.376334 -2.1883
upperneck 29.3788 0.96325 0.593473
head 12.0625 0.259518 0.739541
rclavicle 6.85807e-015 0
rhumerus -24.3423 -17.4582 -77.7234
rradius 24.541
rwrist 32.8072
rhand -18.2618 -26.2114
rfingers 7.12502
rthumb 8.01764 -56.0394
lclavicle 6.85807e-015 0
lhumerus -22.3106 2.07115 85.4697
lradius 19.5768
lwrist 3.92967
lhand -23.6421 -2.74167
lfingers 7.12502
lthumb 2.82303 27.2194
rfemur -14.564 -3.00533 20.8437
rtibia 21.773
rfoot -14.1056 -2.31249
rtoes 9.99663
lfemur -14.271 8.84071 -19.5588
ltibia 19.6611
lfoot -11.5146 3.85629
ltoes -1.64011
97
root 0.558406 17.5505 -13.8898 7.48387 -0.459916 -1.45154
lowerback -2.22719 -0.559215 0.234106
upperback 3.22993 -0.836406 1.90764
thorax 4.60705 -0.444131 1.78796
lowerneck -14.6417 0.362232 -2.24326
upperneck 29.3982 0.944915 0.641035
head 12.077 0.251147 0.764595
rclavicle 3.08116e-015 -1.35174e-014
rhumerus -24.3341 -17.4821 -77.7174
rradius 24.5388
rwrist 32.8283
rhand -18.2716 -26.209
rfingers 7.12502
rthumb 8.00824 -56.0373
lclavicle 3.08116e-015 -1.35174e-014
lhumerus -22.2978 2.09779 85.4649
lradius 19.5705
lwrist 3.91428
lhand -23.6945 -2.87765
lfingers 7.12502
lthumb 2.7724 27.0841
rfemur -14.5676 -3.00953 20.8375
rtibia 21.7878
rfoot -14.1108 -2.31667
rtoes 9.98367
lfemur -14.273 8.82668 -19.5643
ltibia 19.6698
lfoot -11.5165 3.86195
ltoes -1.64308
98
root 0.557949 17.5501 -13.8897 7.48665 -0.451519 -1.44826
lowerback -2.22428 -0.558063 0.235634
upperback 3.23645 -0.834906 1.90509
thorax 4.61207 -0.443322 1.78458
lowerneck -14.6805 0.346725 -2.31064
upperneck 29.4203 0.925359 0.697916
head 12.0935 0.242024 0.795179
rclavicle -1.3418e-014 2.74323e-014
rhumerus -24.3234 -17.4998 -77.713
rradius 24.5369
rwrist 32.8396
rhand -18.2825 -26.2057
rfingers 7.12502
rthumb 7.99767 -56.0344
lclavicle -1.3418e-014 2.74323e-014
lhumerus -22.2859 2.11814 85.4618
lradius 19.565
lwrist 3.90582
lhand -23.7241 -2.98095
lfingers 7.12502
lthumb 2.74379 26.9811
rfemur -14.5781 -3.01195 20.836
rtibia 21.8038
rfoot -14.1148 -2.3222
rtoes 9.96776
lfemur -14.2824 8.81585 -19.5664
ltibia 19.6799
lfoot -11.5171 3.86475
ltoes -1.65049
